<svg xmlns="http://www.w3.org/2000/svg" width="1363.95" height="600.51" viewBox="0 0 1363.95 600.51">
  <g id="Grupo_466" data-name="Grupo 466" transform="translate(-5.473 -236.746)">
    <circle id="Elipse_5" data-name="Elipse 5" cx="43.5" cy="43.5" r="43.5" transform="translate(232.942 626.257)" fill="#27debf" opacity="0.22"/>
    <circle id="Elipse_124" data-name="Elipse 124" cx="43.5" cy="43.5" r="43.5" transform="translate(5.473 522.257)" fill="#00b34c" opacity="0.22"/>
    <circle id="Elipse_118" data-name="Elipse 118" cx="43.5" cy="43.5" r="43.5" transform="translate(145.942 355.257)" fill="#683399" opacity="0.22"/>
    <circle id="Elipse_123" data-name="Elipse 123" cx="33.75" cy="33.75" r="33.75" transform="translate(264.739 236.746)" fill="#0ea6e0" opacity="0.22"/>
    <circle id="Elipse_119" data-name="Elipse 119" cx="43.5" cy="43.5" r="43.5" transform="translate(737.942 343.257)" fill="#00b34c" opacity="0.22"/>
    <circle id="Elipse_120" data-name="Elipse 120" cx="35.234" cy="35.234" r="35.234" transform="translate(332.239 469.775)" fill="#fb0000" opacity="0.22"/>
    <g id="Elipse_121" data-name="Elipse 121" transform="translate(57.239 747.289)" fill="none" stroke="#fb0000" stroke-width="9" opacity="0.22">
      <circle cx="35.234" cy="35.234" r="35.234" stroke="none"/>
      <circle cx="35.234" cy="35.234" r="30.734" fill="none"/>
    </g>
    <g id="Elipse_122" data-name="Elipse 122" transform="translate(975.239 469.775)" fill="none" stroke="#0ea6e0" stroke-width="9" opacity="0.22">
      <circle cx="35.234" cy="35.234" r="35.234" stroke="none"/>
      <circle cx="35.234" cy="35.234" r="30.734" fill="none"/>
    </g>
    <g id="Elipse_6" data-name="Elipse 6" transform="translate(591.74 699.257)" fill="none" stroke="#fb0000" stroke-width="9" opacity="0.22">
      <circle cx="19.5" cy="19.5" r="19.5" stroke="none"/>
      <circle cx="19.5" cy="19.5" r="15" fill="none"/>
    </g>
    <g id="Elipse_13" data-name="Elipse 13" transform="translate(1330.423 798.257)" fill="none" stroke="#683399" stroke-width="9" opacity="0.22">
      <circle cx="19.5" cy="19.5" r="19.5" stroke="none"/>
      <circle cx="19.5" cy="19.5" r="15" fill="none"/>
    </g>
    <g id="Elipse_67" data-name="Elipse 67" transform="translate(312.739 600.127)" fill="none" stroke="#00b34c" stroke-width="9" opacity="0.22">
      <circle cx="19.5" cy="19.5" r="19.5" stroke="none"/>
      <circle cx="19.5" cy="19.5" r="15" fill="none"/>
    </g>
  </g>
</svg>
